<?xml version="1.0" encoding="UTF-8"?> <svg xmlns="http://www.w3.org/2000/svg" xmlns:xlink="http://www.w3.org/1999/xlink" width="273" height="69"><defs><path id="a" d="M0 68.876h273V.001H0z"></path></defs><g fill="none" fill-rule="evenodd"><path d="M68.594 62.68v-.034c0-3.409 2.636-6.232 6.304-6.232 2.26 0 3.613.775 4.86 1.911l-.962.998c-1.05-.965-2.225-1.652-3.917-1.652-2.758 0-4.825 2.168-4.825 4.939v.036c0 2.787 2.083 4.974 4.825 4.974 1.71 0 2.831-.637 4.025-1.738l.925.877c-1.3 1.273-2.724 2.117-4.984 2.117-3.598 0-6.25-2.736-6.25-6.196M94.412 62.68v-.034c0-2.737-2.066-4.975-4.915-4.975-2.848 0-4.878 2.203-4.878 4.939v.036c0 2.735 2.066 4.974 4.914 4.974 2.849 0 4.879-2.203 4.879-4.94m-11.253 0v-.034c0-3.323 2.582-6.232 6.374-6.232 3.793 0 6.337 2.875 6.337 6.196v.036c0 3.32-2.58 6.23-6.373 6.23-3.792 0-6.338-2.874-6.338-6.196M100.625 56.62h1.316l7.853 9.657v-9.656h1.37V68.67h-1.12l-8.05-9.88v9.88h-1.37zM115.652 66.914l.872-.999c1.3 1.136 2.546 1.704 4.273 1.704 1.674 0 2.778-.86 2.778-2.048v-.034c0-1.12-.625-1.755-3.24-2.289-2.867-.603-4.185-1.498-4.185-3.478v-.034c0-1.892 1.727-3.287 4.095-3.287 1.815 0 3.116.498 4.38 1.48l-.819 1.05c-1.157-.913-2.314-1.309-3.596-1.309-1.62 0-2.654.86-2.654 1.946v.034c0 1.136.642 1.773 3.384 2.34 2.777.587 4.059 1.567 4.059 3.409v.034c0 2.066-1.78 3.409-4.255 3.409-1.977 0-3.597-.637-5.092-1.928M129.45 63.626V56.62h1.407v6.92c0 2.598 1.44 4.061 3.81 4.061 2.295 0 3.756-1.343 3.756-3.976V56.62h1.406v6.901c0 3.513-2.083 5.338-5.199 5.338-3.079 0-5.18-1.825-5.18-5.234M144.94 56.62h1.406v10.793h7.015v1.257h-8.421zM159.254 57.877h-4.183V56.62h9.791v1.257h-4.184v10.792h-1.424z" fill="#EE3F59"></path><mask id="b" fill="#fff"><use xlink:href="#a"></use></mask><path fill="#EE3F59" mask="url(#b)" d="M169.402 68.67h1.407V56.62h-1.407zM176.24 56.62h1.316l7.853 9.657v-9.656h1.37V68.67h-1.12l-8.05-9.88v9.88h-1.37zM191.087 62.68v-.034c0-3.305 2.51-6.232 6.25-6.232 2.1 0 3.4.586 4.646 1.601l-.908 1.033c-.961-.809-2.03-1.377-3.79-1.377-2.76 0-4.738 2.255-4.738 4.939v.036c0 2.874 1.905 5.009 4.932 5.009 1.424 0 2.742-.535 3.596-1.207v-2.993h-3.79V62.23h5.144v4.804a7.704 7.704 0 0 1-5.003 1.84c-3.917 0-6.339-2.752-6.339-6.195"></path><path d="M42.495 39.442H27.574v-2.099h.152c.588 0 1.14-.04 1.653-.122.514-.082.96-.248 1.338-.5.379-.253.681-.615.91-1.086.226-.472.34-1.098.34-1.88V18.158c0-.734-.114-1.322-.34-1.77a2.56 2.56 0 0 0-.923-1.037 3.536 3.536 0 0 0-1.35-.49 10.386 10.386 0 0 0-1.628-.12h-.152v-2.1h7.954l.984 4.956h.252c.336-.75.682-1.453 1.035-2.112a6.973 6.973 0 0 1 1.301-1.734c.513-.496 1.148-.887 1.905-1.172.759-.284 1.71-.426 2.854-.426 1.885 0 3.287.317 4.203.952.919.635 1.377 1.53 1.377 2.685 0 .52-.09 1-.265 1.44-.177.439-.46.817-.846 1.135-.387.317-.883.562-1.49.732-.606.171-1.347.256-2.222.256 0-1.382-.202-2.38-.606-2.99-.403-.61-1.11-.915-2.12-.915-.64 0-1.212.175-1.718.525-.504.35-.946.813-1.324 1.39-.38.579-.7 1.242-.96 1.99-.262.749-.47 1.517-.631 2.307-.16.79-.274 1.574-.34 2.356-.068.78-.102 1.488-.102 2.123v7.86c0 .733.114 1.322.341 1.77.227.446.534.785.921 1.013.387.227.837.378 1.351.451.514.074 1.056.11 1.628.11h1.44v2.1zM55.344 25.992c0 1.856.126 3.491.379 4.907s.66 2.6 1.225 3.552c.563.951 1.295 1.672 2.196 2.16.9.488 2 .733 3.296.733 1.295 0 2.39-.245 3.28-.734.893-.487 1.617-1.208 2.173-2.16.555-.952.955-2.135 1.198-3.55.245-1.417.367-3.052.367-4.908 0-1.854-.127-3.481-.38-4.881-.251-1.4-.655-2.566-1.21-3.503-.556-.936-1.283-1.64-2.184-2.111-.901-.472-2-.708-3.295-.708-1.296 0-2.39.236-3.282.708-.893.471-1.616 1.175-2.172 2.111-.556.937-.96 2.103-1.212 3.503-.253 1.4-.379 3.027-.379 4.881m19.139 0c0 4.704-1.032 8.202-3.094 10.496-2.061 2.295-5.079 3.442-9.05 3.442-1.87 0-3.544-.284-5.026-.855a9.631 9.631 0 0 1-3.774-2.587c-1.035-1.155-1.827-2.608-2.374-4.356-.545-1.75-.82-3.796-.82-6.14 0-4.67 1.023-8.144 3.068-10.422 2.045-2.278 5.07-3.417 9.077-3.417 1.868 0 3.543.281 5.024.842a9.566 9.566 0 0 1 3.774 2.563c1.036 1.147 1.827 2.587 2.374 4.32.548 1.734.82 3.771.82 6.114M89.957 37.343v2.1H76.045v-2.1h.682c.59 0 1.128-.04 1.616-.121a2.999 2.999 0 0 0 1.262-.502c.353-.252.627-.614.82-1.085.194-.472.292-1.099.292-1.88V18.158c0-.733-.101-1.322-.304-1.77-.202-.448-.478-.794-.832-1.037a3.084 3.084 0 0 0-1.263-.49 9.69 9.69 0 0 0-1.59-.12h-.151v-2.1h8.103l.682 4.052h.252c.521-.928 1.068-1.689 1.642-2.282a6.998 6.998 0 0 1 1.83-1.392 7.03 7.03 0 0 1 2.045-.683 13.627 13.627 0 0 1 2.285-.184c.842 0 1.642.082 2.399.245.756.163 1.46.423 2.108.78a6.577 6.577 0 0 1 1.742 1.405c.513.577.93 1.28 1.249 2.111h.43c.52-.928 1.086-1.689 1.691-2.282a7.414 7.414 0 0 1 1.932-1.392 7.658 7.658 0 0 1 2.145-.683 14.554 14.554 0 0 1 2.336-.184c1.313 0 2.492.192 3.534.574a6.627 6.627 0 0 1 2.651 1.758c.724.79 1.28 1.802 1.667 3.039s.58 2.71.58 4.418v11.814c0 .781.101 1.408.303 1.88.203.471.48.833.833 1.085.354.253.775.419 1.263.502a9.679 9.679 0 0 0 1.59.121h.153v2.1h-8.99V22.184c0-1.09-.097-2.058-.29-2.904-.193-.848-.504-1.563-.933-2.148a4.053 4.053 0 0 0-1.68-1.331c-.69-.301-1.53-.451-2.524-.451-1.077 0-1.982.198-2.715.598a4.94 4.94 0 0 0-1.779 1.623c-.455.683-.779 1.473-.972 2.368-.194.894-.29 1.846-.29 2.855v10.96c0 .781.101 1.408.302 1.88.202.471.48.833.834 1.085.353.253.774.419 1.262.502a9.679 9.679 0 0 0 1.59.121h.152v2.1h-8.987V22.184c0-1.09-.098-2.058-.292-2.904-.194-.848-.503-1.563-.934-2.148a4.042 4.042 0 0 0-1.679-1.331c-.69-.301-1.532-.451-2.524-.451-1.128 0-2.075.219-2.84.658a5.265 5.265 0 0 0-1.857 1.782c-.47.749-.807 1.61-1.01 2.588a15.155 15.155 0 0 0-.302 3.074V34c0 .732.114 1.322.34 1.77.228.447.535.786.922 1.013.387.227.837.378 1.35.451.515.074 1.057.11 1.63.11h.151zM127.546 4.537c0-.585.074-1.074.226-1.464.152-.392.362-.708.633-.952.268-.244.58-.415.933-.513a4.31 4.31 0 0 1 1.16-.146c.406 0 .784.048 1.138.146.354.098.661.269.922.513.26.244.47.56.63.952.16.39.24.879.24 1.464 0 .586-.08 1.074-.24 1.464-.16.391-.37.708-.63.953a2.285 2.285 0 0 1-.922.524c-.354.106-.732.16-1.137.16-.42 0-.807-.054-1.161-.16a2.382 2.382 0 0 1-.933-.524 2.45 2.45 0 0 1-.633-.953c-.152-.39-.226-.878-.226-1.464zm-3.51 32.806c.572 0 1.114-.037 1.628-.11a3.69 3.69 0 0 0 1.352-.451c.387-.228.695-.566.921-1.014.227-.446.341-1.037.341-1.77v-15.84c0-.733-.114-1.323-.34-1.77a2.565 2.565 0 0 0-.922-1.038 3.54 3.54 0 0 0-1.352-.488 10.394 10.394 0 0 0-1.628-.122h-.151v-2.1h9.24v21.114c0 .782.114 1.408.341 1.88.228.472.53.834.91 1.086.378.252.828.42 1.35.501.521.082 1.068.122 1.64.122h.683v2.099h-14.695v-2.1h.682zM153.481 37.343v2.1H139.57v-2.1h.43c.59 0 1.14-.04 1.653-.121.514-.083.96-.25 1.339-.502.377-.252.681-.614.91-1.085.226-.472.34-1.099.34-1.88V18.158c0-.733-.114-1.322-.34-1.77a2.56 2.56 0 0 0-.923-1.037 3.543 3.543 0 0 0-1.35-.49 10.408 10.408 0 0 0-1.628-.12h-.152v-2.1h8.357l.682 4.052h.252c.538-.928 1.105-1.689 1.704-2.282a7.424 7.424 0 0 1 1.893-1.392 7.351 7.351 0 0 1 2.121-.683 14.716 14.716 0 0 1 2.36-.184c1.365 0 2.58.192 3.65.574a6.902 6.902 0 0 1 2.726 1.758c.749.79 1.321 1.802 1.718 3.039.395 1.237.592 2.71.592 4.418v11.814c0 .781.097 1.408.29 1.88.194.471.468.833.82 1.085.355.253.776.419 1.264.502a9.669 9.669 0 0 0 1.59.121h.177v2.1h-9.014V22.184c0-1.09-.102-2.058-.304-2.904-.2-.848-.525-1.563-.97-2.148A4.177 4.177 0 0 0 158 15.802c-.725-.301-1.608-.451-2.651-.451-1.18 0-2.168.219-2.968.658a5.34 5.34 0 0 0-1.931 1.782c-.488.749-.837 1.61-1.048 2.588a14.655 14.655 0 0 0-.315 3.074V34c0 .732.114 1.322.341 1.77.227.447.534.786.921 1.013.387.227.837.378 1.35.451.515.074 1.058.11 1.63.11h.151zM182.967 14.838c-1.918 0-3.394.753-4.43 2.257-1.034 1.506-1.646 3.707-1.83 6.603h11.89c0-1.317-.1-2.522-.303-3.612-.201-1.09-.52-2.026-.959-2.807-.436-.782-1.014-1.384-1.729-1.806-.716-.424-1.595-.635-2.639-.635m.632 25.093c-1.868 0-3.548-.306-5.038-.916a9.985 9.985 0 0 1-3.774-2.672c-1.027-1.173-1.814-2.609-2.36-4.31-.547-1.7-.82-3.631-.82-5.797 0-4.669.992-8.185 2.978-10.544 1.986-2.36 4.814-3.54 8.483-3.54 1.667 0 3.165.253 4.494.757a8.788 8.788 0 0 1 3.384 2.258c.926 1 1.637 2.246 2.134 3.736.496 1.488.743 3.216.743 5.186v2.294h-17.218c.034 1.823.224 3.389.568 4.7.345 1.309.841 2.388 1.49 3.233a5.85 5.85 0 0 0 2.386 1.867c.943.4 2.029.6 3.257.6.892 0 1.72-.098 2.487-.294a9.589 9.589 0 0 0 2.083-.782 8.522 8.522 0 0 0 1.654-1.11c.48-.415.87-.85 1.173-1.305.237.097.459.3.67.61.21.309.314.675.314 1.098 0 .504-.185 1.046-.554 1.623-.371.578-.934 1.11-1.692 1.598-.758.49-1.705.897-2.84 1.221-1.137.325-2.47.49-4.002.49M209.764 37.343v2.1h-13.91v-2.1h.429c.589 0 1.14-.04 1.653-.121.513-.083.96-.25 1.338-.502.379-.252.681-.614.91-1.085.226-.472.34-1.099.34-1.88V18.158c0-.733-.114-1.322-.34-1.77a2.56 2.56 0 0 0-.923-1.037 3.536 3.536 0 0 0-1.35-.49 10.397 10.397 0 0 0-1.628-.12h-.152v-2.1h8.357l.682 4.052h.253c.537-.928 1.105-1.689 1.703-2.282a7.409 7.409 0 0 1 1.894-1.392 7.332 7.332 0 0 1 2.12-.683 14.716 14.716 0 0 1 2.36-.184c1.365 0 2.58.192 3.65.574a6.915 6.915 0 0 1 2.727 1.758c.748.79 1.32 1.802 1.717 3.039.395 1.237.593 2.71.593 4.418v11.814c0 .781.096 1.408.29 1.88.193.471.467.833.82 1.085.354.253.775.419 1.263.502a9.679 9.679 0 0 0 1.59.121h.177v2.1h-9.014V22.184c0-1.09-.1-2.058-.303-2.904-.201-.848-.525-1.563-.971-2.148a4.177 4.177 0 0 0-1.755-1.331c-.724-.301-1.608-.451-2.651-.451-1.179 0-2.168.219-2.967.658a5.334 5.334 0 0 0-1.932 1.782c-.488.749-.837 1.61-1.048 2.588a14.655 14.655 0 0 0-.315 3.074V34c0 .732.114 1.322.341 1.77.227.447.534.786.921 1.013.387.227.838.378 1.352.451.513.074 1.057.11 1.627.11h.152zM239.595 39.93c-1.717 0-3.299-.256-4.747-.768a9.344 9.344 0 0 1-3.736-2.43c-1.044-1.106-1.857-2.525-2.437-4.259-.58-1.733-.871-3.828-.871-6.285 0-2.67.29-4.902.87-6.7.581-1.799 1.39-3.242 2.425-4.333a8.655 8.655 0 0 1 3.661-2.319c1.404-.455 2.925-.684 4.557-.684 1.078 0 2.15.102 3.219.306 1.07.203 2.032.516 2.89.94.86.423 1.559.955 2.096 1.598.54.644.808 1.395.808 2.258 0 1.156-.387 1.97-1.161 2.441-.774.472-1.927.708-3.46.708 0-.78-.067-1.521-.2-2.221a5.405 5.405 0 0 0-.695-1.843 3.463 3.463 0 0 0-1.338-1.246c-.565-.3-1.284-.45-2.159-.45-.992 0-1.89.179-2.688.537-.8.358-1.487.976-2.059 1.854-.572.879-1.01 2.06-1.312 3.54-.304 1.48-.455 3.336-.455 5.565 0 3.548.61 6.192 1.83 7.934 1.222 1.74 3.22 2.611 5.997 2.611 1.599 0 2.996-.325 4.19-.977 1.196-.65 2.088-1.489 2.676-2.513.253.195.464.455.632.781.168.325.253.716.253 1.17 0 .571-.186 1.14-.555 1.71-.371.568-.922 1.083-1.654 1.537-.733.457-1.645.826-2.74 1.11-1.093.285-2.374.429-3.837.429M262.143 14.828c-1.918 0-3.395.753-4.43 2.258-1.035 1.505-1.646 3.706-1.83 6.603h11.89c0-1.319-.1-2.523-.302-3.613-.202-1.09-.522-2.025-.96-2.807-.437-.781-1.014-1.383-1.729-1.806-.716-.423-1.595-.635-2.639-.635m.632 25.093c-1.868 0-3.548-.305-5.037-.916a9.938 9.938 0 0 1-3.775-2.673c-1.027-1.17-1.814-2.607-2.36-4.308-.548-1.7-.821-3.633-.821-5.796 0-4.672.993-8.185 2.98-10.546 1.985-2.36 4.812-3.539 8.482-3.539 1.667 0 3.165.253 4.494.756 1.33.505 2.457 1.258 3.384 2.259.925 1 1.637 2.245 2.134 3.734.497 1.49.743 3.219.743 5.188v2.294h-17.218c.034 1.822.224 3.389.568 4.699.345 1.31.841 2.388 1.49 3.234a5.816 5.816 0 0 0 2.386 1.867c.943.398 2.028.598 3.256.598.893 0 1.721-.098 2.488-.293a9.61 9.61 0 0 0 2.083-.78 8.633 8.633 0 0 0 1.652-1.111c.481-.417.872-.85 1.174-1.306.238.098.46.3.67.61.211.31.315.675.315 1.098 0 .506-.185 1.045-.554 1.623-.371.578-.934 1.111-1.692 1.599-.758.489-1.705.895-2.84 1.22-1.137.327-2.47.489-4.002.489M9.238 34.288a2.81 2.81 0 0 0-1.09-.59 4.76 4.76 0 0 0-1.316-.18c-.478 0-.925.06-1.342.18-.416.12-.779.317-1.09.59-.31.275-.553.64-.73 1.093-.178.454-.267 1.023-.267 1.709 0 .667.09 1.233.267 1.696.177.462.42.832.73 1.105.311.274.674.47 1.09.59.417.12.864.18 1.342.18.46 0 .9-.06 1.317-.18.416-.12.778-.316 1.09-.59.31-.273.557-.643.742-1.105.188-.463.28-1.029.28-1.696 0-.686-.092-1.255-.28-1.71-.185-.452-.433-.817-.743-1.092M22.608 3.811C18.898.205 13.123-.452 8.142.25 6.756.443 5.378.753 4.073 1.253c-.978.376-1.932.876-2.683 1.607A4.662 4.662 0 0 0 .08 5.23c-.273 1.286.155 2.617 1.223 3.445.55.424 1.176.669 1.852.843.447.116.911.185 1.375.197.06.002.124-.005.183 0 0-.173.02-.703.026-.763.057-.55.126-1.076.293-1.605a8.14 8.14 0 0 1 .494-1.261c.18-.35.403-.675.66-.976a6.486 6.486 0 0 1 2.291-1.7 6.98 6.98 0 0 1 .707-.269c1.755-.564 3.729-.614 5.485-.03a6.822 6.822 0 0 1 3.66 2.873c3 4.85.734 12.42-5.283 13.696-3.05.647-6.05.353-9.139.337l.035 11.11h5.544c.052-4.08.052-8.087.04-8.525 3.668.01 5.866-.135 8.829-1.393 4.132-1.753 6.744-5.739 6.85-10.122.062-2.57-.682-5.413-2.597-7.276" fill="#EE3F59" mask="url(#b)"></path></g></svg> 